HIERARCHY
ROOT hip
{
  OFFSET 0 0 0
  CHANNELS 6 Xposition Yposition Zposition Zrotation Yrotation Xrotation
  JOINT abdomen
  {
    OFFSET 0 20.6881 -0.73152
    CHANNELS 3 Zrotation Xrotation Yrotation
    JOINT chest
    {
      OFFSET 0 11.7043 -0.48768
      CHANNELS 3 Zrotation Xrotation Yrotation
      JOINT neck
      {
        OFFSET 0 22.1894 -2.19456
        CHANNELS 3 Zrotation Xrotation Yrotation
        JOINT head
        {
          OFFSET -0.24384 7.07133 1.2192
          CHANNELS 3 Zrotation Xrotation Yrotation
          JOINT leftEye
          {
            OFFSET 4.14528 8.04674 8.04672
            CHANNELS 3 Zrotation Xrotation Yrotation
            End Site
            {
              OFFSET 1 0 0
            }
          }
          JOINT rightEye
          {
            OFFSET -3.6576 8.04674 8.04672
            CHANNELS 3 Zrotation Xrotation Yrotation
            End Site
            {
              OFFSET 1 0 0
            }
          }
        }
      }
      JOINT rCollar
      {
        OFFSET -2.68224 19.2634 -4.8768
        CHANNELS 3 Zrotation Xrotation Yrotation
        JOINT rShldr
        {
          OFFSET -8.77824 -1.95073 1.46304
          CHANNELS 3 Zrotation Xrotation Yrotation
          JOINT rForeArm
          {
            OFFSET -28.1742 -1.7115 0.48768
            CHANNELS 3 Zrotation Xrotation Yrotation
            JOINT rHand
            {
              OFFSET -22.5879 0.773209 7.07136
              CHANNELS 3 Zrotation Xrotation Yrotation
              JOINT rThumb1
              {
                OFFSET -1.2192 -0.487915 3.41376
                CHANNELS 3 Zrotation Xrotation Yrotation
                JOINT rThumb2
                {
                  OFFSET -3.37035 -0.52449 3.41376
                  CHANNELS 3 Zrotation Xrotation Yrotation
                  End Site
                  {
                    OFFSET -1.78271 -1.18214 1.43049
                  }
                }
              }
              JOINT rIndex1
              {
                OFFSET -7.75947 0.938293 5.60832
                CHANNELS 3 Zrotation Xrotation Yrotation
                JOINT rIndex2
                {
                  OFFSET -2.54057 -0.884171 1.56538
                  CHANNELS 3 Zrotation Xrotation Yrotation
                  End Site
                  {
                    OFFSET -1.62519 -0.234802 1.16502
                  }
                }
              }
              JOINT rMid1
              {
                OFFSET -8.24714 1.18213 3.41376
                CHANNELS 3 Zrotation Xrotation Yrotation
                JOINT rMid2
                {
                  OFFSET -3.10165 -0.590103 1.0647
                  CHANNELS 3 Zrotation Xrotation Yrotation
                  End Site
                  {
                    OFFSET -2.48547 -0.328903 0.83742
                  }
                }
              }
              JOINT rRing1
              {
                OFFSET -8.82822 0.546677 1.51678
                CHANNELS 3 Zrotation Xrotation Yrotation
                JOINT rRing2
                {
                  OFFSET -2.60934 -0.819778 -0.0198488
                  CHANNELS 3 Zrotation Xrotation Yrotation
                  End Site
                  {
                    OFFSET -2.33842 -0.294052 0.168128
                  }
                }
              }
              JOINT rPinky1
              {
                OFFSET -8.27202 -0.0477905 -0.4584
                CHANNELS 3 Zrotation Xrotation Yrotation
                JOINT rPinky2
                {
                  OFFSET -1.82734 -0.647385 -0.700984
                  CHANNELS 3 Zrotation Xrotation Yrotation
                  End Site
                  {
                    OFFSET -1.69225 -0.51767 -0.607171
                  }
                }
              }
            }
          }
        }
      }
      JOINT lCollar
      {
        OFFSET 2.68224 19.2634 -4.8768
        CHANNELS 3 Zrotation Xrotation Yrotation
        JOINT lShldr
        {
          OFFSET 8.77824 -1.95073 1.46304
          CHANNELS 3 Zrotation Xrotation Yrotation
          JOINT lForeArm
          {
            OFFSET 28.1742 -1.7115 0.48768
            CHANNELS 3 Zrotation Xrotation Yrotation
            JOINT lHand
            {
              OFFSET 22.5879 0.773209 7.07136
              CHANNELS 3 Zrotation Xrotation Yrotation
              JOINT lThumb1
              {
                OFFSET 1.2192 -0.487915 3.41376
                CHANNELS 3 Zrotation Xrotation Yrotation
                JOINT lThumb2
                {
                  OFFSET 3.37035 -0.52449 3.41376
                  CHANNELS 3 Zrotation Xrotation Yrotation
                  End Site
                  {
                    OFFSET 1.78271 -1.18214 1.43049
                  }
                }
              }
              JOINT lIndex1
              {
                OFFSET 7.75947 0.938293 5.60832
                CHANNELS 3 Zrotation Xrotation Yrotation
                JOINT lIndex2
                {
                  OFFSET 2.54057 -0.884171 1.56538
                  CHANNELS 3 Zrotation Xrotation Yrotation
                  End Site
                  {
                    OFFSET 1.62519 -0.234802 1.16502
                  }
                }
              }
              JOINT lMid1
              {
                OFFSET 8.24714 1.18213 3.41376
                CHANNELS 3 Zrotation Xrotation Yrotation
                JOINT lMid2
                {
                  OFFSET 3.10165 -0.590103 1.0647
                  CHANNELS 3 Zrotation Xrotation Yrotation
                  End Site
                  {
                    OFFSET 2.48547 -0.328903 0.83742
                  }
                }
              }
              JOINT lRing1
              {
                OFFSET 8.82822 0.546677 1.51678
                CHANNELS 3 Zrotation Xrotation Yrotation
                JOINT lRing2
                {
                  OFFSET 2.60934 -0.819778 -0.0198488
                  CHANNELS 3 Zrotation Xrotation Yrotation
                  End Site
                  {
                    OFFSET 2.33842 -0.294052 0.168128
                  }
                }
              }
              JOINT lPinky1
              {
                OFFSET 8.27202 -0.0477905 -0.4584
                CHANNELS 3 Zrotation Xrotation Yrotation
                JOINT lPinky2
                {
                  OFFSET 1.82734 -0.647385 -0.700984
                  CHANNELS 3 Zrotation Xrotation Yrotation
                  End Site
                  {
                    OFFSET 1.69225 -0.51767 -0.607171
                  }
                }
              }
            }
          }
        }
      }
    }
  }
  JOINT rButtock
  {
    OFFSET -8.77824 4.35084 1.2192
    CHANNELS 3 Zrotation Xrotation Yrotation
    JOINT rThigh
    {
      OFFSET 0 -1.70687 -2.19456
      CHANNELS 3 Zrotation Xrotation Yrotation
      JOINT rShin
      {
        OFFSET 0 -36.8199 0.73152
        CHANNELS 3 Zrotation Xrotation Yrotation
        JOINT rFoot
        {
          OFFSET 0.73152 -45.1104 -5.12064
          CHANNELS 3 Zrotation Xrotation Yrotation
          End Site
          {
            OFFSET -1.1221 -3.69964 12.103
          }
        }
      }
    }
  }
  JOINT lButtock
  {
    OFFSET 8.77824 4.35084 1.2192
    CHANNELS 3 Zrotation Xrotation Yrotation
    JOINT lThigh
    {
      OFFSET 0 -1.70687 -2.19456
      CHANNELS 3 Zrotation Xrotation Yrotation
      JOINT lShin
      {
        OFFSET 0 -36.8199 0.73152
        CHANNELS 3 Zrotation Xrotation Yrotation
        JOINT lFoot
        {
          OFFSET -0.73152 -45.1104 -5.12064
          CHANNELS 3 Zrotation Xrotation Yrotation
          End Site
          {
            OFFSET 1.1221 -3.69964 12.103
          }
        }
      }
    }
  }
}
MOTION
Frames:	9
Frame Time:	0.00833333
6.36564 83.0006 40.8235 6.512 -1.1782 2.3749 -10.7357 7.78723 -1.8013 7.21093 -12.6555 0.0726733 -2.34279 5.9824 -4.84246 4.06123 -5.29393 -8.93854 -0.0 0.0 0.0 -0.0 0.0 0.0 1.05431e-13 1.42537e-13 1.34009e-14 86.0855 24.9835 -14.7249 -11.7744 -5.29165 21.1741 -0.0720942 7.63758 1.07986 2.54763e-10 9.14376e-10 -2.58006e-09 4.24002e-10 1.58725e-09 -4.46404e-09 2.54765e-10 9.14378e-10 -2.58005e-09 7.73091 5.47488 0.417314 2.54761e-10 9.14378e-10 -2.58005e-09 2.90554 0.965183 0.102902 2.54769e-10 9.14377e-10 -2.58005e-09 10.2786 0.731801 0.0259123 2.54759e-10 9.14381e-10 -2.58004e-09 2.22167 -0.733487 -0.20892 1.05366e-13 1.42532e-13 1.31147e-14 -80.4721 27.2392 -2.31586 13.7682 -6.76883 -25.089 0.0128738 -3.24171 0.456082 -1.61067e-09 -2.98876e-10 1.45341e-09 -2.78305e-09 -5.16598e-10 2.51312e-09 -1.61068e-09 -2.98878e-10 1.45342e-09 -7.73091 5.47488 -0.417314 -1.61068e-09 -2.98881e-10 1.45341e-09 -2.90554 0.965183 -0.102902 -1.61069e-09 -2.9888e-10 1.45341e-09 -10.2786 0.731801 -0.0259123 -1.61066e-09 -2.98876e-10 1.4534e-09 -2.22167 -0.733487 0.20892 -2.03217e-16 0.0 -3.88251e-19 -1.01719 -35.2585 25.9101 -0.123758 25.2922 0.578013 -5.37558 -12.3042 -17.1173 2.03217e-16 0.0 3.88251e-19 -13.0767 7.91453 -12.9669 -0.0394863 5.86221 -0.412143 2.33699 -9.86743 10.0233
6.35455 82.9865 41.4943 6.5489 -0.9672 2.5253 -10.7814 7.67564 -1.89308 7.22515 -12.6539 0.0482484 -2.34083 6.1495 -4.84716 4.06033 -5.41665 -8.94849 -0.0 0.0 0.0 -0.0 0.0 0.0 1.06582e-13 1.70162e-13 3.72721e-15 86.1119 24.8908 -14.8301 -11.7366 -5.26563 21.1012 -0.0740788 7.74184 1.09478 4.63056e-10 9.88984e-10 -3.08659e-09 7.80427e-10 1.71778e-09 -5.34165e-09 4.63059e-10 9.88986e-10 -3.08659e-09 7.73091 5.47488 0.417314 4.63055e-10 9.88985e-10 -3.08659e-09 2.90554 0.965183 0.102902 4.63063e-10 9.88984e-10 -3.08659e-09 10.2786 0.731801 0.0259123 4.63051e-10 9.88989e-10 -3.08658e-09 2.22167 -0.733487 -0.20892 1.06522e-13 1.70157e-13 3.42904e-15 -80.5027 27.293 -2.36471 13.7751 -6.77443 -25.1027 0.0134345 -3.30736 0.465341 -1.6902e-09 -1.73945e-11 1.7547e-09 -2.92023e-09 -2.97445e-11 3.03404e-09 -1.69021e-09 -1.73972e-11 1.75471e-09 -7.73091 5.47488 -0.417314 -1.69021e-09 -1.73992e-11 1.7547e-09 -2.90554 0.965183 -0.102902 -1.69021e-09 -1.73985e-11 1.7547e-09 -10.2786 0.731801 -0.0259123 -1.69019e-09 -1.73933e-11 1.75469e-09 -2.22167 -0.733487 0.20892 -2.03217e-16 0.0 -3.88251e-19 -0.885703 -35.0167 27.4836 -0.11319 24.363 0.581514 -5.88782 -13.0514 -17.9521 2.03217e-16 0.0 3.88251e-19 -12.8482 9.16705 -12.7965 -0.0423425 4.30064 -0.391706 2.20314 -9.39596 9.86001
6.3944 82.9091 42.2063 6.7592 -0.778 2.629 -10.7402 7.58889 -1.99644 7.19789 -12.6335 0.0164661 -2.39109 6.25613 -4.85981 4.11832 -5.51253 -8.96168 -0.0 0.0 0.0 -0.0 0.0 0.0 1.41113e-13 1.47996e-13 -8.70343e-15 86.1182 24.8205 -14.9335 -11.6929 -5.23566 21.017 -0.0763536 7.85971 1.11166 -2.29896e-11 1.07513e-09 -3.08928e-09 -5.95551e-11 1.86613e-09 -5.34217e-09 -2.29858e-11 1.07513e-09 -3.08929e-09 7.73091 5.47488 0.417314 -2.29909e-11 1.07513e-09 -3.08928e-09 2.90554 0.965183 0.102902 -2.29832e-11 1.07513e-09 -3.08928e-09 10.2786 0.731801 0.0259123 -2.29948e-11 1.07514e-09 -3.08927e-09 2.22167 -0.733487 -0.20892 1.41079e-13 1.47994e-13 -8.97715e-15 -80.5442 27.3126 -2.42211 13.7336 -6.74151 -25.0198 0.0135143 -3.3044 0.464929 -1.92722e-09 -5.17325e-10 1.3352e-09 -3.32945e-09 -8.92852e-10 2.30843e-09 -1.92723e-09 -5.17327e-10 1.33521e-09 -7.73091 5.47488 -0.417314 -1.92722e-09 -5.17328e-10 1.3352e-09 -2.90554 0.965183 -0.102902 -1.92723e-09 -5.17327e-10 1.3352e-09 -10.2786 0.731801 -0.0259123 -1.92721e-09 -5.17322e-10 1.33519e-09 -2.22167 -0.733487 0.20892 -2.03217e-16 0.0 -3.88251e-19 -0.810665 -34.8666 28.5454 -0.106265 23.7171 0.579398 -6.26026 -13.5878 -18.5316 2.03217e-16 0.0 3.88251e-19 -12.7268 10.0099 -12.6558 -0.0425813 3.63577 -0.380792 2.16356 -9.42838 9.65503
6.35695 82.8247 42.968 6.7997 -0.5651 2.6883 -10.6408 7.52088 -2.10876 7.14299 -12.6023 -0.020677 -2.47772 6.32592 -4.87744 4.21426 -5.58914 -8.97632 -0.0 0.0 0.0 -0.0 0.0 0.0 1.93316e-13 9.467e-14 -2.44226e-14 86.1079 24.7588 -15.0347 -11.6438 -5.20202 20.9225 -0.0789946 7.99314 1.13078 -9.18318e-10 1.14779e-09 -2.76645e-09 -1.60462e-09 1.98984e-09 -4.77632e-09 -9.18313e-10 1.14779e-09 -2.76646e-09 7.73091 5.47488 0.417314 -9.18319e-10 1.14779e-09 -2.76645e-09 2.90554 0.965183 0.102902 -9.18312e-10 1.14779e-09 -2.76645e-09 10.2786 0.731801 0.0259123 -9.18322e-10 1.14779e-09 -2.76644e-09 2.22167 -0.733487 -0.20892 1.93323e-13 9.46727e-14 -2.46493e-14 -80.5987 27.302 -2.4796 13.6606 -6.68356 -24.8745 0.0133239 -3.26166 0.458909 -2.22647e-09 -1.46072e-09 4.66928e-10 -3.84614e-09 -2.52205e-09 8.06706e-10 -2.22648e-09 -1.46072e-09 4.66937e-10 -7.73091 5.47488 -0.417314 -2.22648e-09 -1.46072e-09 4.66927e-10 -2.90554 0.965183 -0.102902 -2.22648e-09 -1.46072e-09 4.66923e-10 -10.2786 0.731801 -0.0259123 -2.22647e-09 -1.46072e-09 4.66919e-10 -2.22167 -0.733487 0.20892 -2.03217e-16 0.0 -3.88251e-19 -0.77135 -34.7944 29.2496 -0.102373 23.3284 0.575605 -6.53546 -14.0039 -18.9246 2.03217e-16 0.0 3.88251e-19 -12.6756 10.5729 -12.5103 -0.042392 3.59323 -0.376334 2.1803 -9.7978 9.40815
6.28614 82.7509 43.7808 6.7058 -0.3829 2.7019 -10.5325 7.46489 -2.22061 7.08459 -12.5644 -0.0586045 -2.56797 6.3794 -4.89293 4.3048 -5.66385 -8.98598 -0.0 0.0 0.0 -0.0 0.0 0.0 2.33967e-13 3.93313e-14 -3.73106e-14 86.0849 24.6852 -15.1248 -11.5922 -5.16672 20.8232 -0.0818805 8.136 1.15127 -1.72495e-09 1.15282e-09 -2.2872e-09 -2.9954e-09 1.99636e-09 -3.9407e-09 -1.72494e-09 1.15281e-09 -2.28721e-09 7.73091 5.47488 0.417314 -1.72495e-09 1.15281e-09 -2.2872e-09 2.90554 0.965183 0.102902 -1.72495e-09 1.15281e-09 -2.2872e-09 10.2786 0.731801 0.0259123 -1.72495e-09 1.15281e-09 -2.28718e-09 2.22167 -0.733487 -0.20892 2.34015e-13 3.93382e-14 -3.74888e-14 -80.6559 27.2468 -2.53837 13.5623 -6.60621 -24.6785 0.012471 -3.15203 0.443453 -2.38569e-09 -2.27817e-09 -3.9758e-10 -4.12084e-09 -3.93362e-09 -6.88548e-10 -2.38569e-09 -2.27816e-09 -3.97567e-10 -7.73091 5.47488 -0.417314 -2.38569e-09 -2.27816e-09 -3.97577e-10 -2.90554 0.965183 -0.102902 -2.38569e-09 -2.27816e-09 -3.97582e-10 -10.2786 0.731801 -0.0259123 -2.38569e-09 -2.27816e-09 -3.97587e-10 -2.22167 -0.733487 0.20892 -2.03217e-16 0.0 -3.88251e-19 -0.768413 -34.7514 29.6311 -0.100469 23.1186 0.571586 -6.6954 -14.3055 -19.0827 2.03217e-16 0.0 3.88251e-19 -12.6473 11.0144 -12.3631 -0.0422436 3.814 -0.375491 2.20756 -10.2448 9.15095
6.24553 82.6641 44.636 6.6971 -0.2796 2.6554 -10.4646 7.41421 -2.32256 7.04683 -12.5243 -0.0927447 -2.62912 6.4371 -4.89916 4.34663 -5.75405 -8.98427 -0.0 0.0 0.0 -0.0 0.0 0.0 2.33841e-13 1.11281e-14 -4.12478e-14 86.0526 24.5796 -15.1946 -11.5408 -5.13178 20.7245 -0.0848742 8.28213 1.17223 -1.94491e-09 1.03607e-09 -1.82062e-09 -3.37249e-09 1.79316e-09 -3.13194e-09 -1.9449e-09 1.03607e-09 -1.82063e-09 7.73091 5.47488 0.417314 -1.94491e-09 1.03606e-09 -1.82062e-09 2.90554 0.965183 0.102902 -1.9449e-09 1.03607e-09 -1.82062e-09 10.2786 0.731801 0.0259123 -1.94491e-09 1.03607e-09 -1.8206e-09 2.22167 -0.733487 -0.20892 2.33915e-13 1.11364e-14 -4.13969e-14 -80.7054 27.1326 -2.59957 13.4448 -6.51513 -24.4437 0.0106735 -2.9484 0.41474 -2.20258e-09 -2.40022e-09 -8.05771e-10 -3.80411e-09 -4.14388e-09 -1.39475e-09 -2.20259e-09 -2.40022e-09 -8.05755e-10 -7.73091 5.47488 -0.417314 -2.20258e-09 -2.40022e-09 -8.05765e-10 -2.90554 0.965183 -0.102902 -2.20258e-09 -2.40022e-09 -8.05772e-10 -10.2786 0.731801 -0.0259123 -2.20258e-09 -2.40022e-09 -8.05778e-10 -2.22167 -0.733487 0.20892 -2.03217e-16 0.0 -3.88251e-19 -0.805043 -34.6854 29.7227 -0.0994936 23.0089 0.568817 -6.72393 -14.497 -18.9579 2.03217e-16 0.0 3.88251e-19 -12.5961 11.4929 -12.2186 -0.0424205 3.939 -0.375455 2.20471 -10.5091 8.91492
6.16295 82.5669 45.4619 6.652 -0.1465 2.6186 -10.4507 7.36249 -2.40997 7.03738 -12.4792 -0.121233 -2.64472 6.52962 -4.89159 4.31229 -5.90079 -8.96594 -0.0 0.0 0.0 -0.0 0.0 0.0 1.61673e-13 3.048e-14 -3.00242e-14 86.0099 24.431 -15.2429 -11.4922 -5.09878 20.6312 -0.0880253 8.43377 1.19401 -1.12962e-09 6.89204e-10 -1.33825e-09 -1.96064e-09 1.19345e-09 -2.30459e-09 -1.12962e-09 6.89201e-10 -1.33827e-09 7.73091 5.47488 0.417314 -1.12962e-09 6.89198e-10 -1.33825e-09 2.90554 0.965183 0.102902 -1.12962e-09 6.89199e-10 -1.33825e-09 10.2786 0.731801 0.0259123 -1.12963e-09 6.89199e-10 -1.33824e-09 2.22167 -0.733487 -0.20892 1.61754e-13 3.04854e-14 -3.01718e-14 -80.7436 26.9226 -2.67333 13.2955 -6.40078 -24.1454 0.00762943 -2.57909 0.362694 -1.38053e-09 -1.26973e-09 -4.35525e-10 -2.38327e-09 -2.19003e-09 -7.5503e-10 -1.38053e-09 -1.26973e-09 -4.35509e-10 -7.73091 5.47488 -0.417314 -1.38052e-09 -1.26973e-09 -4.35517e-10 -2.90554 0.965183 -0.102902 -1.38053e-09 -1.26973e-09 -4.35524e-10 -10.2786 0.731801 -0.0259123 -1.38053e-09 -1.26973e-09 -4.35531e-10 -2.22167 -0.733487 0.20892 -2.03217e-16 0.0 -3.88251e-19 -0.908759 -34.5915 29.398 -0.0993705 22.9993 0.567471 -6.56615 -14.5824 -18.3898 2.03217e-16 0.0 3.88251e-19 -12.5168 12.0211 -12.0755 -0.0430285 3.91162 -0.375585 2.16544 -10.5159 8.71588
6.05586 82.4357 46.2335 6.6665 0.105 2.6766 -10.4643 7.31483 -2.4886 7.04298 -12.4281 -0.146723 -2.63489 6.63766 -4.8749 4.23036 -6.08269 -8.93563 -0.0 0.0 0.0 -0.0 0.0 0.0 4.0873e-14 7.7626e-14 -8.42971e-15 85.9556 24.2519 -15.2742 -11.4442 -5.0663 20.5392 -0.0914063 8.59292 1.21688 3.50062e-10 1.72392e-10 -7.74429e-10 5.99794e-10 3.00612e-10 -1.34198e-09 3.50068e-10 1.72392e-10 -7.74446e-10 7.73091 5.47488 0.417314 3.5006e-10 1.72388e-10 -7.7443e-10 2.90554 0.965183 0.102902 3.5007e-10 1.72389e-10 -7.74432e-10 10.2786 0.731801 0.0259123 3.50058e-10 1.7239e-10 -7.74422e-10 2.22167 -0.733487 -0.20892 4.09513e-14 7.76256e-14 -8.59123e-15 -80.7769 26.6355 -2.75553 13.1147 -6.26316 -23.7867 0.004492 -2.08004 0.29243 -1.08307e-10 6.74504e-10 4.04653e-10 -1.84528e-10 1.16979e-09 6.97168e-10 -1.08311e-10 6.74509e-10 4.04667e-10 -7.73091 5.47488 -0.417314 -1.08304e-10 6.74508e-10 4.04662e-10 -2.90554 0.965183 -0.102902 -1.08311e-10 6.74508e-10 4.04655e-10 -10.2786 0.731801 -0.0259123 -1.08309e-10 6.74507e-10 4.04647e-10 -2.22167 -0.733487 0.20892 -2.03217e-16 0.0 -3.88251e-19 -1.06496 -34.4913 28.6867 -0.100562 23.1247 0.56681 -6.24689 -14.5553 -17.4523 2.03217e-16 0.0 3.88251e-19 -12.4313 12.5241 -11.9321 -0.0438993 3.9103 -0.377346 2.11222 -10.4057 8.53483
5.95648 82.2986 47.028 6.6718 0.3147 2.7419 -10.4944 7.28174 -2.56456 7.05626 -12.3778 -0.171421 -2.62162 6.70681 -4.85579 4.14145 -6.22343 -8.90169 -0.0 0.0 0.0 -0.0 0.0 0.0 -7.57711e-14 1.21442e-13 1.31555e-14 85.8935 24.0579 -15.2885 -11.393 -5.03182 20.4411 -0.0948862 8.75303 1.23991 1.763e-09 -3.15705e-10 -2.42441e-10 3.04472e-09 -5.42608e-10 -4.33826e-10 1.763e-09 -3.15704e-10 -2.42456e-10 7.73091 5.47488 0.417314 1.76299e-09 -3.15707e-10 -2.42442e-10 2.90554 0.965183 0.102902 1.76301e-09 -3.15706e-10 -2.42443e-10 10.2786 0.731801 0.0259123 1.76299e-09 -3.15706e-10 -2.42437e-10 2.22167 -0.733487 -0.20892 -7.57058e-14 1.21436e-13 1.29738e-14 -80.8094 26.3399 -2.82613 12.9289 -6.12265 -23.4211 0.0025465 -1.58555 0.222873 1.08826e-09 2.50797e-09 1.22137e-09 1.88327e-09 4.33792e-09 2.10898e-09 1.08826e-09 2.50798e-09 1.22138e-09 -7.73091 5.47488 -0.417314 1.08827e-09 2.50798e-09 1.22138e-09 -2.90554 0.965183 -0.102902 1.08826e-09 2.50798e-09 1.22137e-09 -10.2786 0.731801 -0.0259123 1.08826e-09 2.50798e-09 1.22136e-09 -2.22167 -0.733487 0.20892 -2.03217e-16 0.0 -3.88251e-19 -1.21534 -34.3733 27.8541 -0.102832 23.3591 0.566969 -5.87415 -14.4056 -16.4502 2.03217e-16 0.0 3.88251e-19 -12.3353 13.03 -11.793 -0.0449089 3.92864 -0.381074 2.05078 -10.24 8.35096
